<svg id="虫眼鏡アイコン" xmlns="http://www.w3.org/2000/svg" width="60" height="60" viewBox="0 0 60 60">
  <g id="グループ_25750" data-name="グループ 25750" transform="translate(-1164 -14807)">
    <g id="グループ_11609" data-name="グループ 11609" transform="translate(-1 13818)">
      <path id="パス_1013" data-name="パス 1013" d="M30,0A30,30,0,1,1,0,30,30,30,0,0,1,30,0Z" transform="translate(1165 989)" fill="rgba(0,0,0,0.5)" opacity="0.8"/>
    </g>
    <path id="magnifying-glass" d="M47.509,46.2l-5.771-5.77a10.156,10.156,0,1,0-1.3,1.3l5.77,5.771a.923.923,0,0,0,1.3-1.3ZM25.649,33.947a8.3,8.3,0,1,1,8.3,8.3A8.3,8.3,0,0,1,25.649,33.947Z" transform="translate(1158.221 14801.221)" fill="#fff"/>
  </g>
</svg>
