<svg id="グループ_21707" data-name="グループ 21707" xmlns="http://www.w3.org/2000/svg" xmlns:xlink="http://www.w3.org/1999/xlink" width="112" height="103" viewBox="0 0 112 103">
  <defs>
    <clipPath id="clip-path">
      <rect id="長方形_8334" data-name="長方形 8334" width="112" height="103" fill="none" stroke="#818181" stroke-width="2"/>
    </clipPath>
  </defs>
  <g id="グループ_21706" data-name="グループ 21706" clip-path="url(#clip-path)">
    <path id="パス_109398" data-name="パス 109398" d="M8,99.214,3.077,126.237a4.662,4.662,0,0,0,4.582,5.5H7.8a4.659,4.659,0,0,0,4.511-3.5l8.073-31.5,2.046,30.656a4.657,4.657,0,0,0,9.3-.311V64.654H59.812a5.117,5.117,0,0,0,0-10.235H15.606A11.256,11.256,0,0,0,4.357,65.681V90.069a4.486,4.486,0,1,0,8.973,0v-21.9" transform="translate(-1.636 -29.639)" fill="none" stroke="#818181" stroke-linecap="round" stroke-linejoin="round" stroke-width="2"/>
    <path id="パス_109399" data-name="パス 109399" d="M45.545,12.633A9.623,9.623,0,1,1,35.922,3,9.628,9.628,0,0,1,45.545,12.633Z" transform="translate(-14.337 -1.634)" fill="none" stroke="#818181" stroke-linecap="round" stroke-linejoin="round" stroke-width="2"/>
    <path id="パス_109400" data-name="パス 109400" d="M84.026,24.587V15.226h72.107V72.851H84.026v-18.1" transform="translate(-45.806 -8.293)" fill="none" stroke="#818181" stroke-linecap="round" stroke-linejoin="round" stroke-width="2"/>
    <line id="線_10640" data-name="線 10640" x1="23.294" y2="37.539" transform="translate(49.023 64.558)" fill="none" stroke="#818181" stroke-linecap="round" stroke-linejoin="round" stroke-width="2"/>
    <line id="線_10641" data-name="線 10641" x1="23.294" y1="37.539" transform="translate(72.317 64.558)" fill="none" stroke="#818181" stroke-linecap="round" stroke-linejoin="round" stroke-width="2"/>
    <line id="線_10642" data-name="線 10642" x2="28.555" transform="translate(58.04 87.567)" fill="none" stroke="#818181" stroke-linecap="round" stroke-linejoin="round" stroke-width="2"/>
    <path id="パス_109401" data-name="パス 109401" d="M160.681,53.638,156,50.229l.433.756V43.471a.888.888,0,0,0-.875-.876h-4.847a.888.888,0,0,0-.875.876v3.989l1.317-.756-7.609-5.535a.845.845,0,0,0-.883,0L134.7,46.957c-.9.656-.03,2.177.883,1.513l7.957-5.789h-.883l7.609,5.535a.881.881,0,0,0,1.316-.756V43.471l-.875.876h4.847l-.875-.876v6.707c0,1.159.217,1.407,1.22,2.136l3.9,2.836c.912.663,1.786-.855.883-1.512" transform="translate(-71.806 -17.667)" fill="#818181"/>
    <path id="パス_109402" data-name="パス 109402" d="M121.744,82.057V94.379a.888.888,0,0,0,.875.876h8.451a.888.888,0,0,0,.875-.876V84.043l-.875.876h7.856l-.875-.876V94.379a.888.888,0,0,0,.875.876h8.453a.888.888,0,0,0,.875-.876V82.059a.875.875,0,0,0-1.75,0V94.379l.875-.876h-8.453l.875.876V84.043a.888.888,0,0,0-.875-.876H131.07a.888.888,0,0,0-.875.876V94.379l.875-.876h-8.451l.875.876V82.057a.875.875,0,0,0-1.75,0" transform="translate(-63.706 -43.522)" fill="#818181"/>
  </g>
</svg>
