<svg id="グループ_21728" data-name="グループ 21728" xmlns="http://www.w3.org/2000/svg" xmlns:xlink="http://www.w3.org/1999/xlink" width="137" height="103.001" viewBox="0 0 137 103.001">
  <defs>
    <clipPath id="clip-path">
      <rect id="長方形_8337" data-name="長方形 8337" width="137" height="103.001" fill="#818181"/>
    </clipPath>
  </defs>
  <g id="グループ_21727" data-name="グループ 21727" clip-path="url(#clip-path)">
    <path id="パス_109414" data-name="パス 109414" d="M52.39,20.418A10.209,10.209,0,1,0,42.22,10.209,10.2,10.2,0,0,0,52.39,20.418m0-18.287a8.078,8.078,0,1,1-8.047,8.078A8.071,8.071,0,0,1,52.39,2.131" transform="translate(-31.764)" fill="#818181"/>
    <path id="パス_109415" data-name="パス 109415" d="M63.49,128.7,50.1,124.335V108.552l10.052,3.8a1.024,1.024,0,0,0,.389.068l16.825-.243a6.381,6.381,0,0,0,.019-12.762L60.644,99.12,49.1,92.4A18.131,18.131,0,0,0,35.791,90.3c-5.778,1.363-9.092,5.093-9.092,10.232v26.123a14.5,14.5,0,0,0,13.726,14.511l15.206.812v25.951a1.506,1.506,0,0,0,1.5,1.509h8.65a1.506,1.506,0,0,0,1.5-1.509V138.143c0-1.935.008-3.936-.038-5.617-.06-2.231-2.037-3.279-3.759-3.822M65.3,167.3a.145.145,0,0,1-.145.145H57.613a.145.145,0,0,1-.145-.145v-26.64c-.012-.7-.156-.723-.638-.778l-16.3-.848a12.373,12.373,0,0,1-11.712-12.382V100.532c0-5.568,4.671-7.5,7.455-8.158a15.262,15.262,0,0,1,3.5-.406,16.431,16.431,0,0,1,8.258,2.28L59.818,101.1a1.062,1.062,0,0,0,.514.143l17.039.3a4.25,4.25,0,0,1-.015,8.5l-16.639.24-11.3-4.27a1.062,1.062,0,0,0-1.435,1v18.1a1.065,1.065,0,0,0,.734,1.013l14.118,4.608a3.232,3.232,0,0,1,2.467,3.12c.015.732,0,1.466,0,2.2v25.223h0Z" transform="translate(-20.087 -67.502)" fill="#818181"/>
    <path id="パス_109416" data-name="パス 109416" d="M312.755,132.525c-.045,1.682-.038,3.682-.038,5.617v29.786a1.506,1.506,0,0,0,1.5,1.509h8.65a1.506,1.506,0,0,0,1.5-1.509V141.978l15.206-.812A14.5,14.5,0,0,0,353.3,126.655V100.532c0-5.139-3.314-8.869-9.092-10.232A18.13,18.13,0,0,0,330.9,92.4L319.36,99.12l-16.745.293a6.381,6.381,0,0,0,.019,12.762l16.825.243a1.024,1.024,0,0,0,.389-.068l10.052-3.8v15.783L316.514,128.7c-1.723.544-3.7,1.591-3.759,3.822m1.944,28.746h0V136.048c0-.732-.014-1.466,0-2.2a3.232,3.232,0,0,1,2.467-3.12l14.118-4.608a1.066,1.066,0,0,0,.734-1.014v-18.1a1.062,1.062,0,0,0-1.435-1l-11.3,4.27-16.639-.24a4.25,4.25,0,0,1-.015-8.5l17.039-.3a1.065,1.065,0,0,0,.514-.144l11.781-6.854a16.429,16.429,0,0,1,8.258-2.28,15.248,15.248,0,0,1,3.5.406c2.784.657,7.455,2.59,7.455,8.158v26.123a12.373,12.373,0,0,1-11.712,12.382l-16.3.847c-.482.055-.626.076-.638.778V167.3a.145.145,0,0,1-.145.145h-7.547a.145.145,0,0,1-.145-.145Z" transform="translate(-222.9 -67.502)" fill="#818181"/>
    <path id="パス_109417" data-name="パス 109417" d="M32.281,154.265H18.076A16,16,0,0,1,2.123,138.251V103.043a1.061,1.061,0,1,0-2.123,0v35.208a18.147,18.147,0,0,0,15.61,17.972V177.1a1.061,1.061,0,0,0,.078.4H7.767a1.065,1.065,0,0,0,0,2.131H25.576a1.065,1.065,0,0,0,0-2.131H17.654a1.066,1.066,0,0,0,.078-.4V156.387c.114,0,.228.009.343.009H32.281a1.066,1.066,0,0,0,0-2.131" transform="translate(0 -76.624)" fill="#818181"/>
    <path id="パス_109418" data-name="パス 109418" d="M438.994,20.418a10.209,10.209,0,1,0-10.17-10.209,10.2,10.2,0,0,0,10.17,10.209m0-18.287a8.078,8.078,0,1,1-8.047,8.078,8.071,8.071,0,0,1,8.047-8.078" transform="translate(-322.62)" fill="#818181"/>
    <path id="パス_109419" data-name="パス 109419" d="M450.824,101.977a1.064,1.064,0,0,0-1.061,1.066v35.208a16,16,0,0,1-15.953,16.014H419.6a1.066,1.066,0,0,0,0,2.131H433.81c.115,0,.229-.007.343-.009V177.1a1.066,1.066,0,0,0,.078.4H426.31a1.065,1.065,0,0,0,0,2.131h17.808a1.065,1.065,0,0,0,0-2.131H436.2a1.065,1.065,0,0,0,.078-.4V156.223a18.147,18.147,0,0,0,15.61-17.972V103.043a1.064,1.064,0,0,0-1.062-1.066" transform="translate(-314.885 -76.624)" fill="#818181"/>
    <path id="パス_109420" data-name="パス 109420" d="M211.577,201.4a1.066,1.066,0,0,0,0-2.131H161.247a1.066,1.066,0,0,0,0,2.131h24.474v50.263a1.061,1.061,0,1,0,2.123,0V201.4Z" transform="translate(-120.514 -149.726)" fill="#818181"/>
  </g>
</svg>
