<svg xmlns="http://www.w3.org/2000/svg" xmlns:xlink="http://www.w3.org/1999/xlink" width="105" height="105" viewBox="0 0 105 105">
  <defs>
    <clipPath id="clip-path">
      <rect id="長方形_8336" data-name="長方形 8336" width="105" height="105" transform="translate(-2 -2)" fill="#606060" stroke="#818181" stroke-width="1"/>
    </clipPath>
  </defs>
  <g id="グループ_21711" data-name="グループ 21711" transform="translate(2 2)">
    <g id="グループ_21710" data-name="グループ 21710" clip-path="url(#clip-path)">
      <path id="パス_109408" data-name="パス 109408" d="M40.175,1.193A39.427,39.427,0,0,1,76.92,27.043,39.031,39.031,0,0,1,20.031,73.63,39.377,39.377,0,0,1,1.926,32.45,39.427,39.427,0,0,1,40.175,1.193a.6.6,0,0,0,0-1.193A40.653,40.653,0,0,0,2.462,26.228,40.223,40.223,0,0,0,60.921,74.66,40.608,40.608,0,0,0,79.628,32.4C75.967,13.694,59.122.131,40.175,0a.6.6,0,0,0,0,1.193" transform="translate(0 0)" fill="#606060" stroke="#818181" stroke-width="1"/>
      <path id="パス_109409" data-name="パス 109409" d="M166.427,156.527,193.308,183.4c.333.333.692.652,1,1,2.2,2.482.534,4.7-1.314,6.551-2.457,2.456-5.4,6.5-8.969,3.149-4.732-4.441-9.2-9.2-13.791-13.789l-13.8-13.8a.6.6,0,0,0-.844.843c9.213,9.212,18.267,18.618,27.654,27.651a5.241,5.241,0,0,0,3.947,1.658c1.925-.093,3.135-1.354,4.4-2.621,2.624-2.623,7.1-6.029,3.921-10.079a49.12,49.12,0,0,0-4.051-4.1l-8.849-8.848-15.345-15.343a.6.6,0,0,0-.843.843" transform="translate(-93.614 -93.677)" fill="#606060" stroke="#818181" stroke-width="1"/>
      <path id="パス_109410" data-name="パス 109410" d="M174.162,185.089,185,174.254a.6.6,0,0,0-.843-.843l-10.836,10.835a.6.6,0,0,0,.843.843" transform="translate(-104.292 -104.356)" fill="#606060" stroke="#818181" stroke-width="1"/>
      <path id="パス_109411" data-name="パス 109411" d="M83.378,85.767V62.934l-.6.6h5.223a.605.605,0,0,0,.6-.6v-3.69c0-.742.15-1.41-.319-1.979-.884-1.072-2.724-1.9-3.854-2.689L68.93,43.758l-4.257-2.971a.581.581,0,0,0-.6,0L53.146,48.467l-7.791,5.477a37.3,37.3,0,0,0-4.572,3.214c-.487.472-.47.74-.47,1.441v4.334a.605.605,0,0,0,.6.6h5.223l-.6-.6V85.767a.605.605,0,0,0,.6.6H82.782a.6.6,0,0,0,0-1.193H46.133l.6.6V62.934a.605.605,0,0,0-.6-.6H40.909l.6.6V59.6a6.7,6.7,0,0,0,0-1.664c.055.183-.578.308-.09.227.442-.074,1.141-.8,1.5-1.056l2.906-2.043,15-10.545L63.3,42.779c.327-.23,1.106-.574,1.316-.925-.22.369-.773-.38-.093.282a16.074,16.074,0,0,0,2.043,1.426L81.383,53.9c1.88,1.312,3.807,3.071,5.864,4.093a3.469,3.469,0,0,1,.433.3c-.079-.057-.172-.692-.272-.355a3.963,3.963,0,0,0,0,.966v4.027l.6-.6H82.782a.605.605,0,0,0-.6.6V85.767a.6.6,0,0,0,1.193,0" transform="translate(-24.282 -24.519)" fill="#606060" stroke="#818181" stroke-width="1"/>
      <path id="パス_109412" data-name="パス 109412" d="M96.575,110.07h-13.8l.6.6v-13.8l-.6.6h13.8l-.6-.6v13.8a.6.6,0,0,0,1.193,0v-13.8a.606.606,0,0,0-.6-.6h-13.8a.606.606,0,0,0-.6.6v13.8a.606.606,0,0,0,.6.6h13.8a.6.6,0,0,0,0-1.193" transform="translate(-49.5 -57.994)" fill="#606060" stroke="#818181" stroke-width="1"/>
    </g>
  </g>
</svg>
