<svg id="グループ_18907" data-name="グループ 18907" xmlns="http://www.w3.org/2000/svg" xmlns:xlink="http://www.w3.org/1999/xlink" width="118" height="76" viewBox="0 0 118 76">
  <defs>
    <clipPath id="clip-path">
      <rect id="長方形_8318" data-name="長方形 8318" width="118" height="76" fill="none"/>
    </clipPath>
  </defs>
  <g id="グループ_18906" data-name="グループ 18906" clip-path="url(#clip-path)">
    <path id="パス_27161" data-name="パス 27161" d="M28.094,4.843h-11.6a1.627,1.627,0,0,1-1.628-1.626V.421H13.233v2.8A1.627,1.627,0,0,1,11.6,4.843H0V6.47H28.094Z" transform="translate(0 -0.249)" fill="#fff"/>
    <path id="パス_27162" data-name="パス 27162" d="M3.072,46.144,14.361,34.588V45.576h1.628V34.749L27.12,46.144l1.165-1.136L17.045,33.5H27.361V24.263H17.618a1.628,1.628,0,0,1-1.628-1.627V21.529H14.361v1.107a1.627,1.627,0,0,1-1.628,1.627H3.291V33.5h9.857L1.907,45.008ZM25.733,27.19v3.383a1.3,1.3,0,0,1-1.3,1.3H17.292a1.3,1.3,0,0,1-1.3-1.3V27.19a1.3,1.3,0,0,1,1.3-1.3h7.139a1.3,1.3,0,0,1,1.3,1.3m-19.512-1.3h6.837a1.3,1.3,0,0,1,1.3,1.3v3.383a1.3,1.3,0,0,1-1.3,1.3H6.222a1.3,1.3,0,0,1-1.3-1.3V27.19a1.3,1.3,0,0,1,1.3-1.3" transform="translate(-1.128 -12.745)" fill="#fff"/>
    <path id="パス_27163" data-name="パス 27163" d="M78.048,7.592,81.319.683,79.842,0,71.933,16.906l1.477.683,2.737-5.9a.652.652,0,0,1,1.067-.171l8,8.552a1.3,1.3,0,0,1,0,1.774L75.53,32.258l1.193,1.107,9.247-9.939a1.629,1.629,0,0,1,2.382,0l9.305,9.944,1.189-1.111L89.1,21.84a1.3,1.3,0,0,1,0-1.774l10.238-11a.325.325,0,0,0-.239-.547H78.639a.651.651,0,0,1-.591-.924m7.915,10.9-6.785-7.251a.65.65,0,0,1,.476-1.095H94.613a.651.651,0,0,1,.477,1.093l-6.745,7.249a1.629,1.629,0,0,1-2.382,0" transform="translate(-42.553)" fill="#fff"/>
    <path id="パス_27164" data-name="パス 27164" d="M3.023,94.128H27.167A1.627,1.627,0,0,1,28.8,95.755V109.3a1.628,1.628,0,0,1-1.628,1.627H16.483a1.627,1.627,0,0,1-1.628-1.627V99.29H13.227V109.3a1.627,1.627,0,0,1-1.628,1.627H3.023v1.626H61.5l-.254-1.626H32.052a1.627,1.627,0,0,1-1.628-1.627V95.755a1.627,1.627,0,0,1,1.628-1.626H55.477V92.5H3.023Z" transform="translate(-1.788 -54.762)" fill="#fff"/>
    <rect id="長方形_8316" data-name="長方形 8316" width="13.942" height="1.626" transform="translate(36.978 47.215)" fill="#fff"/>
    <path id="パス_27165" data-name="パス 27165" d="M171.512,33.722V32.1H155.964a1.627,1.627,0,0,1-1.628-1.627V21.394a1.627,1.627,0,0,1,1.628-1.627h9.968V18.141h-9.968a1.627,1.627,0,0,1-1.628-1.626V9.239a1.627,1.627,0,0,1,1.628-1.626h9.968V5.986H152.708V32.769l-9.635,27.255,1.273,1.308,9.368-26.525a1.629,1.629,0,0,1,1.535-1.085Z" transform="translate(-84.636 -3.544)" fill="#fff"/>
    <path id="パス_27166" data-name="パス 27166" d="M265.236,5.985H253.4V7.611h8.583a1.628,1.628,0,0,1,1.628,1.627v7.276a1.627,1.627,0,0,1-1.628,1.626H253.4v1.627h11.84Z" transform="translate(-149.899 -3.543)" fill="#fff"/>
    <path id="パス_27167" data-name="パス 27167" d="M222.441,58.081V44.772H204.208a1.627,1.627,0,0,1-1.628-1.626v-7.8a1.627,1.627,0,0,1,1.628-1.626h19.079V32.1H204.208a1.628,1.628,0,0,1-1.628-1.627V21.394a1.628,1.628,0,0,1,1.628-1.627H208.6V5.986H194.837V19.767h6.115V46.4h18.234a1.627,1.627,0,0,1,1.628,1.626V58.081a1.627,1.627,0,0,1-1.628,1.626H188.052a1.627,1.627,0,0,1-1.628-1.626V48.266a1.627,1.627,0,0,1,1.628-1.626h8.2V45.014H184.8v16.32h42.522V59.707h-3.249a1.627,1.627,0,0,1-1.628-1.626M198.093,7.612h7.249a1.627,1.627,0,0,1,1.628,1.626v7.276a1.627,1.627,0,0,1-1.628,1.626h-7.249a1.627,1.627,0,0,1-1.628-1.626V9.239a1.627,1.627,0,0,1,1.628-1.626" transform="translate(-109.318 -3.544)" fill="#fff"/>
    <path id="パス_27168" data-name="パス 27168" d="M59.452,171.577H63.7v1.053H62.155v4.659H60.987v-4.659H59.452Z" transform="translate(-35.169 -101.574)" fill="#fff"/>
    <path id="パス_27169" data-name="パス 27169" d="M84.411,173.072a2.827,2.827,0,0,1,1.6-1.559,3.437,3.437,0,0,1,2.4,0,2.9,2.9,0,0,1,.96.616,2.785,2.785,0,0,1,.637.942,3.1,3.1,0,0,1,.225,1.2,3.135,3.135,0,0,1-.225,1.2,2.91,2.91,0,0,1-.629.958,2.827,2.827,0,0,1-.956.632,3.391,3.391,0,0,1-2.426,0,2.872,2.872,0,0,1-.96-.632,2.823,2.823,0,0,1-.629-.958,3.188,3.188,0,0,1-.221-1.2,3.051,3.051,0,0,1,.229-1.2m1.233,2.166a1.822,1.822,0,0,0,2.491.67,1.708,1.708,0,0,0,.625-.67,2.04,2.04,0,0,0,.225-.971,2.077,2.077,0,0,0-.221-.971,1.671,1.671,0,0,0-.621-.669,1.907,1.907,0,0,0-1.871,0,1.732,1.732,0,0,0-.629.669,2.175,2.175,0,0,0,0,1.942" transform="translate(-49.799 -101.409)" fill="#fff"/>
    <path id="パス_27170" data-name="パス 27170" d="M113.313,171.577h4.248v1.053h-1.544v4.659h-1.168v-4.659h-1.536Z" transform="translate(-67.031 -101.574)" fill="#fff"/>
    <path id="パス_27171" data-name="パス 27171" d="M138.271,173.072a2.827,2.827,0,0,1,1.6-1.559,3.437,3.437,0,0,1,2.4,0,2.9,2.9,0,0,1,.96.616,2.78,2.78,0,0,1,.637.942,3.087,3.087,0,0,1,.225,1.2,3.128,3.128,0,0,1-.225,1.2,2.915,2.915,0,0,1-.629.958,2.829,2.829,0,0,1-.956.632,3.39,3.39,0,0,1-2.426,0,2.874,2.874,0,0,1-.96-.632,2.822,2.822,0,0,1-.629-.958,3.189,3.189,0,0,1-.221-1.2,3.051,3.051,0,0,1,.229-1.2m1.233,2.166a1.823,1.823,0,0,0,2.492.67,1.711,1.711,0,0,0,.625-.67,2.044,2.044,0,0,0,.224-.971,2.077,2.077,0,0,0-.221-.971,1.671,1.671,0,0,0-.621-.669,1.907,1.907,0,0,0-1.871,0,1.731,1.731,0,0,0-.629.669,2.179,2.179,0,0,0,0,1.942" transform="translate(-81.66 -101.409)" fill="#fff"/>
    <path id="パス_27172" data-name="パス 27172" d="M174.561,171.162v6l-4.068-3.827v3.541h-1.127v-6l4.068,3.827v-3.542Z" transform="translate(-100.19 -101.16)" fill="#fff"/>
    <path id="パス_27173" data-name="パス 27173" d="M198.856,173.072a2.827,2.827,0,0,1,1.6-1.559,3.437,3.437,0,0,1,2.4,0,2.9,2.9,0,0,1,.96.616,2.786,2.786,0,0,1,.637.942,3.1,3.1,0,0,1,.225,1.2,3.135,3.135,0,0,1-.225,1.2,2.91,2.91,0,0,1-.629.958,2.827,2.827,0,0,1-.956.632,3.391,3.391,0,0,1-2.426,0,2.871,2.871,0,0,1-.96-.632,2.823,2.823,0,0,1-.629-.958,3.19,3.19,0,0,1-.221-1.2,3.051,3.051,0,0,1,.229-1.2m1.233,2.166a1.822,1.822,0,0,0,2.491.67,1.708,1.708,0,0,0,.625-.67,2.04,2.04,0,0,0,.225-.971,2.077,2.077,0,0,0-.221-.971,1.671,1.671,0,0,0-.621-.669,1.907,1.907,0,0,0-1.871,0,1.732,1.732,0,0,0-.629.669,2.175,2.175,0,0,0,0,1.942" transform="translate(-117.5 -101.409)" fill="#fff"/>
    <rect id="長方形_8317" data-name="長方形 8317" width="1.184" height="5.712" transform="translate(93.916 70.002)" fill="#fff"/>
  </g>
</svg>
